<svg width="180" height="180" viewBox="0 0 180 180" fill="none" xmlns="http://www.w3.org/2000/svg">
<g clip-path="url(#clip0_505_60)">
<circle cx="90" cy="90" r="80" fill="#E6007A"/>
<path d="M44.3553 66V114H35.9073V66H44.3553ZM83.3953 66V114H74.9473V66H83.3953ZM78.9793 86.096V93.52H40.4513V86.096H78.9793ZM123.341 95.696L144.653 117.328H134.157L113.037 95.696H123.341ZM119.117 114.896C113.699 114.896 108.899 113.851 104.717 111.76C100.579 109.669 97.3573 106.747 95.0533 102.992C92.7493 99.2373 91.5973 94.9067 91.5973 90C91.5973 85.0933 92.7493 80.7627 95.0533 77.008C97.3573 73.2533 100.579 70.3307 104.717 68.24C108.899 66.1493 113.699 65.104 119.117 65.104C124.536 65.104 129.315 66.1493 133.453 68.24C137.635 70.3307 140.877 73.2533 143.181 77.008C145.485 80.7627 146.637 85.0933 146.637 90C146.637 94.9067 145.485 99.2373 143.181 102.992C140.877 106.747 137.635 109.669 133.453 111.76C129.315 113.851 124.536 114.896 119.117 114.896ZM119.117 107.344C122.957 107.344 126.307 106.64 129.165 105.232C132.024 103.824 134.221 101.819 135.757 99.216C137.293 96.5707 138.061 93.4987 138.061 90C138.061 86.5013 137.293 83.4507 135.757 80.848C134.221 78.2027 132.024 76.176 129.165 74.768C126.307 73.36 122.957 72.656 119.117 72.656C115.277 72.656 111.928 73.36 109.069 74.768C106.211 76.176 104.013 78.2027 102.477 80.848C100.941 83.4507 100.173 86.5013 100.173 90C100.173 93.4987 100.941 96.5707 102.477 99.216C104.013 101.819 106.211 103.824 109.069 105.232C111.928 106.64 115.277 107.344 119.117 107.344Z" fill="white"/>
</g>
<defs>
<clipPath id="clip0_505_60">
<rect width="180" height="180" fill="white"/>
</clipPath>
</defs>
</svg>
